<svg id="Layer_1" data-name="Layer 1" xmlns="http://www.w3.org/2000/svg" width="1100" height="1100" viewBox="0 0 1100 1100"><circle cx="550" cy="578.32" r="500" style="fill:#8bbff0"/><path d="M335.68,477.67c-10.72-34.92-3.06-55.45,4.6-74.35s-4.6-60.76-13.79-85.27c-6.63-17.69-93-60.11-140.63-82.35A498.22,498.22,0,0,0,50,578.32C50,757.5,144.25,914.66,285.88,1003c9.28-24.38,22.95-68.49,31.42-133.41,13.79-105.71,42.89-87.32,90.38-139.41s58.21-121,32.17-167S346.4,512.6,335.68,477.67Z" style="fill:#e8caa2"/><path d="M550,1078.32A498,498,0,0,0,878.76,955c-21.51-15-83.17-20.41-100.36-34.95-19.91-16.85-70.46-15.32-78.12,1.53s-78.13-3.06-111.83-12.25S560.87,842,568.53,829.71s27.58-53.62-10.72-87.32-32.17-23-122.55,12.25-114.39,92-123.52,150.94c-5.8,37.51-19.34,74.1-28.42,95.75A497.56,497.56,0,0,0,550,1078.32Z" style="fill:#76d68b"/><path d="M939.77,363.49c-10.22-2-77.62,91.92-71.49,128.68,5.47,32.87-34.75,103.26-63.77,111.14h0s74,9.36,90.32,33.87,66.38,57.19,91.91,51.07c15.22-3.65,35.88-1,51,.77a501.1,501.1,0,0,0-87-409.83C950.42,321,945.4,364.62,939.77,363.49Z" style="fill:#e8caa2"/><path d="M939.77,363.49c5.63,1.13,10.65-42.53,10.92-84.29C870.83,172.4,749.28,98.6,610.16,81.92c-6.84,34.35-37.76,70.89-46.22,79.36-10.22,10.21-75.58,63.32-53.11,122.55s112.34-14.3,134.81,0,26.55,34.72,20.42,49-20.42,57-16.34,75.47-12.25,65.06-28.59,69.35S525.07,606.55,587.4,637.19s82.75,120.51,109.3,55.15,69.45-98.38,98-89a16.75,16.75,0,0,0,9.77,0c29-7.88,69.24-78.27,63.77-111.14C862.15,455.41,929.55,361.45,939.77,363.49Z" style="fill:#76d68b"/><path d="M945.45,388.8l-198.83-125-.08-.05-.3-.16-.26-.14-.24-.1-.35-.14-.08,0-.12,0-.38-.11-.22,0-.34-.06-.28,0-.29,0h-.57l-.33,0-.24,0-.33.06-.24.05-.31.09-.26.08-.27.11-.27.12-.24.12-.28.15-.21.14-.27.18-.21.17-.23.19-.22.21-.19.2-.22.25-.15.19a3.37,3.37,0,0,0-.21.31l-.09.11a.2.2,0,0,1,0,.08,3.07,3.07,0,0,0-.17.31l-.13.25c0,.08-.07.17-.11.25s-.09.22-.13.34l0,.08L633.64,580.64l-407-66.3-.2,0-.31,0h-.58l-.31,0-.28,0-.3.05-.28,0-.28.07-.29.09-.27.1-.27.11-.27.12-.26.14-.27.16-.16.1-.07.05-.25.19-.23.18-.2.19a2.39,2.39,0,0,0-.23.22l-.16.18-.22.26-.15.2-.19.27-.14.25-.14.25c-.05.09-.09.19-.13.28a2,2,0,0,0-.11.26c0,.09-.07.18-.1.27l-.09.29-.06.26c0,.11-.05.22-.07.32a.31.31,0,0,0,0,.08c0,.07,0,.13,0,.19s0,.21,0,.32,0,.19,0,.29v.3c0,.1,0,.2,0,.29l0,.29c0,.1,0,.2,0,.3l.06.28a2.29,2.29,0,0,0,.07.28c0,.1.05.19.08.29s.06.18.1.27.07.18.11.27a2.39,2.39,0,0,0,.13.28c0,.08.08.17.13.25l.17.28.1.16L452.79,866a5.3,5.3,0,0,0,.46.6l.13.14a3.64,3.64,0,0,0,.34.34,1.54,1.54,0,0,0,.19.17,2.91,2.91,0,0,0,.33.26l.22.16,0,0,.13.08a5.86,5.86,0,0,0,.55.3l.27.12.47.17.31.1a4.1,4.1,0,0,0,.48.1l.3.06a5.65,5.65,0,0,0,.71,0h.13a6,6,0,0,0,.73,0l.31-.06.49-.11.32-.1a4.78,4.78,0,0,0,.48-.19l.27-.12a5.82,5.82,0,0,0,.6-.34l.1-.06,0,0,.2-.15c.12-.09.24-.18.35-.28l.19-.17c.12-.12.23-.23.33-.35l.14-.15a5.13,5.13,0,0,0,.44-.6L642.74,590.67l.12-.2.1-.18,0-.06a.43.43,0,0,1,0-.07,4.76,4.76,0,0,0,.3-.7l0-.12s0,0,0-.07l103.3-311.22L939.06,399a6,6,0,0,0,6.39-10.16Zm-487.75,463L238.48,528.42l389.17,63.4Z" style="fill:#f2e6c2"/><circle cx="637.72" cy="587.38" r="15" style="fill:#f2b230"/><circle cx="457.79" cy="862.64" r="15" style="fill:#f2b230"/><circle cx="225.7" cy="520.26" r="15" style="fill:#f2b230"/><circle cx="942.26" cy="393.88" r="15" style="fill:#f2b230"/><circle cx="743.43" cy="268.9" r="15" style="fill:#f2b230"/><polygon points="637.67 587.24 512.11 202.13 486.31 211.52 637.67 587.24" style="fill:#454545"/><polygon points="501.97 205.82 578.21 439.64 486.31 211.52 501.97 205.82" style="fill:#4d4d4d"/><path d="M524.12,140.22,485.64,60.6l-70,25.49,21.7,85.72c-24.4,23.21-35.81,53.26-30.24,68.55,8.05,22.12,55.82,25,106.71,6.51s85.62-51.47,77.57-73.58C585.78,158,557.73,142.31,524.12,140.22Z" style="fill:#d63636"/><path d="M591.35,173.29c8,22.11-26.68,55.05-77.57,73.58-42.53,15.48-82.88,16-99.69,2.81,20.18,2.89,48.06-.71,76.94-11.22,50.89-18.52,85.62-51.46,77.57-73.58-2.76-7.58-11.05-15.28-22.82-21.34C569.22,149.36,587,161.43,591.35,173.29Z" style="fill:#bd2f2f"/><path d="M421.68,110.07s46.4,21.92,102.44,30.15L496.48,82.83Z" style="fill:#bd2f2f"/><ellipse cx="448.2" cy="66.67" rx="88.25" ry="35.51" transform="translate(4.23 157.31) rotate(-20)" style="fill:#d63636"/></svg>