<svg id="Layer_1" data-name="Layer 1" xmlns="http://www.w3.org/2000/svg" width="765" height="225" viewBox="0 0 765 225"><defs><style>.cls-1{fill:#fff;}</style></defs><path class="cls-1" d="M7.11,169.53v-2.24a30.82,30.82,0,0,0,9.13-1.62,16.56,16.56,0,0,0,6.1-4,15.69,15.69,0,0,0,4.2-7.91q1.08-4.78,1.08-14.84v-72q0-10.05-1.08-14.84a15.73,15.73,0,0,0-4.2-7.91A15.42,15.42,0,0,0,16.19,40a31.91,31.91,0,0,0-9.08-1.56V36.23H71.27q9.77,0,12.79.2,11.13.87,18.46,5.27A27.16,27.16,0,0,1,112.33,52a29.31,29.31,0,0,1,3.47,14.26q0,12.8-7.91,21a26.35,26.35,0,0,1-6.44,5A75.29,75.29,0,0,1,91,96.68a87.69,87.69,0,0,1,14.55,3.42,32.79,32.79,0,0,1,9.37,5.17,34.67,34.67,0,0,1,9.72,12.65,38.85,38.85,0,0,1,3.47,16.36,36.84,36.84,0,0,1-3.57,16.26,30.53,30.53,0,0,1-9.91,11.86A35.83,35.83,0,0,1,100.91,168q-8,1.56-22.41,1.56ZM49,39.26v58h7.91a87.19,87.19,0,0,0,11.53-.79,50,50,0,0,0,8.35-1.85A22.81,22.81,0,0,0,82.6,91.7a24.43,24.43,0,0,0,7.66-9.52A30.25,30.25,0,0,0,93,69.34a36.5,36.5,0,0,0-2.78-14.12,25.91,25.91,0,0,0-7.38-10.4,22.35,22.35,0,0,0-9.13-4.39q-5.13-1.17-15.57-1.17Zm0,61v40.24a55.08,55.08,0,0,0,1,11.81A19.85,19.85,0,0,0,53.4,160q5,6.54,17.09,6.54,15.72,0,24.85-8.59t9.13-23.44a43.07,43.07,0,0,0-2.83-15.77A26.4,26.4,0,0,0,94,107.52q-8.79-7.23-27.54-7.23Z"/><path class="cls-1" d="M214,177.83l-1.76.49a11.86,11.86,0,0,0-3.32-3.81,7.38,7.38,0,0,0-4.1-1.07,8.28,8.28,0,0,0-6.69,3.12,12.29,12.29,0,0,0-2.59,8.11q0,7.91,7.91,13t20.21,5.07q13.09,0,21.15-5.61t8.05-14.6q0-7.23-5.37-11.08t-15.33-3.86H216.58q-9.57,0-15.43-4.51-6-4.69-6.05-11.26,0-7,6.44-11,3.33-2,12.11-4.21a32.91,32.91,0,0,1-13.18-10.28,23.24,23.24,0,0,1-4.69-14.09,24.73,24.73,0,0,1,7.33-17.54,30.78,30.78,0,0,1,22.18-9.65q9.38,0,19.15,6.64a36.44,36.44,0,0,1,8.28-5.13,20.66,20.66,0,0,1,8-1.51,13.23,13.23,0,0,1,7.73,2A7.5,7.5,0,0,1,272,93.36a5.37,5.37,0,0,1-1.38,3.76,4.47,4.47,0,0,1-3.45,1.51c-2.1,0-4-1.1-5.71-3.32l-2.24-2.93A6.33,6.33,0,0,0,253.91,90q-3.61,0-7.6,3.61,8,9.67,8,19.92,0,12.8-11.36,20.22a34.18,34.18,0,0,1-12.24,5q-2,.28-12.44,1-14.36.87-14.35,8,0,6.25,12.22,6.25h16.14a58.4,58.4,0,0,1,14.38,1.52,30,30,0,0,1,10.27,4.73q8.61,6.36,8.61,17.87,0,12.7-10,19.83-10.28,7.32-30.12,7.32-21.31,0-30.22-8.59a18.64,18.64,0,0,1-5.67-13.87,15.72,15.72,0,0,1,4.2-11.08A13.43,13.43,0,0,1,204,167.19a10,10,0,0,1,7.18,2.63,9.11,9.11,0,0,1,2.79,6.94Zm-4.2-64.89q0,10.53,4.42,17.15t11.35,6.63q7,0,10.9-6.58t3.89-18.27q0-12.09-5.06-19.3-3.7-5.37-9.54-5.36-7,0-11.29,7A30.54,30.54,0,0,0,211,102.8,41.9,41.9,0,0,0,209.75,112.94Z"/><path class="cls-1" d="M444.12,35.55l1.17,43.65h-2.24c-.72-1.89-1.27-3.32-1.66-4.3q-3.42-9.37-5.57-14a49.37,49.37,0,0,0-11-15,36.23,36.23,0,0,0-11.33-7.52A35.31,35.31,0,0,0,400.27,36a37,37,0,0,0-19.14,4.78,48.13,48.13,0,0,0-13.28,12.06A70.25,70.25,0,0,0,357.79,70.8Q352.23,85,352.23,103A93.21,93.21,0,0,0,356,130.66a55.28,55.28,0,0,0,11.13,20.61q13.47,15.43,35.74,15.43a49.85,49.85,0,0,0,20-3.86A31.6,31.6,0,0,0,436.7,152q5.66-8.1,8.2-21.87l2.25.39q-1.86,15.43-8.4,24.51a39.25,39.25,0,0,1-17.24,13.28q-11,4.59-25.44,4.59a82.81,82.81,0,0,1-25.78-4,56.72,56.72,0,0,1-30.66-23.29q-11-16.84-11-40.19a83,83,0,0,1,6.45-33,61,61,0,0,1,18-24.27A69.74,69.74,0,0,1,374.25,37,73.79,73.79,0,0,1,424,37.3l8,2.64a11.84,11.84,0,0,0,4.1.88,4.82,4.82,0,0,0,4-2,20.07,20.07,0,0,0,1.66-3.22Z"/><path class="cls-1" d="M456.82,88.57l28.12-3.51V141.3l.1,7.4a43.08,43.08,0,0,0,.78,9.68,10.07,10.07,0,0,0,3,5.11q2.73,2.63,10.06,4v2.05H455.74v-2.05c3.91-.52,6.71-1.24,8.4-2.18a10,10,0,0,0,4.1-4.82,21,21,0,0,0,1.52-6.75q.44-4.51.44-13.07v-24a137.11,137.11,0,0,0-.49-14,15.16,15.16,0,0,0-2.15-6.55,10.27,10.27,0,0,0-4-3.94,17.59,17.59,0,0,0-6.73-1.51ZM477.18,50a8.7,8.7,0,0,1-6.34-2.44,8.7,8.7,0,0,1,.05-12.26,9.18,9.18,0,0,1,12.57,0,8.68,8.68,0,0,1,.05,12.26A8.69,8.69,0,0,1,477.18,50Z"/><path class="cls-1" d="M529.47,86.52h24.81v3.71H529.47v56.84q0,10.26,3.51,14.65a12.32,12.32,0,0,0,4.86,3.81,15.65,15.65,0,0,0,6.53,1.36,13.69,13.69,0,0,0,7.3-1.8,25.48,25.48,0,0,0,6.42-6.59l1.46,1.27a20.32,20.32,0,0,1-9,8.69q-5.82,2.82-14.5,2.83-11.53,0-16.8-4.49a10.84,10.84,0,0,1-3.71-5.62q-.88-3.27-.88-11.77V90.23H504.18V88.67a27.48,27.48,0,0,0,11.73-7.91,39.66,39.66,0,0,0,5.21-7.18,50.75,50.75,0,0,0,3.73-9.22l1-3.23h3.64Z"/><path class="cls-1" d="M557.11,88.57l28.12-3.51V141.3l.1,7.4a43.08,43.08,0,0,0,.78,9.68,10.07,10.07,0,0,0,3,5.11q2.73,2.63,10.06,4v2.05H556v-2.05c3.9-.52,6.7-1.24,8.39-2.18a10.06,10.06,0,0,0,4.11-4.82,21.09,21.09,0,0,0,1.51-6.75q.44-4.51.44-13.07v-24a134.19,134.19,0,0,0-.49-14,15.16,15.16,0,0,0-2.15-6.55,10.32,10.32,0,0,0-4-3.94,17.64,17.64,0,0,0-6.74-1.51ZM577.47,50a8.69,8.69,0,0,1-6.33-2.44,8.68,8.68,0,0,1,.05-12.26,9.18,9.18,0,0,1,12.57,0,8.69,8.69,0,0,1,0,12.26A8.67,8.67,0,0,1,577.47,50Z"/><path class="cls-1" d="M625.18,116.41q-.39,4.78-.39,6.93a56.2,56.2,0,0,0,2.48,16.6A40.28,40.28,0,0,0,634,153.42a31.6,31.6,0,0,0,24.43,11.72,28.35,28.35,0,0,0,10-1.76,21.47,21.47,0,0,0,7.84-4.88q3.51-3.42,6-10.94l2.06.68q-2.55,11.43-10.89,17.24t-22.22,5.81q-12,0-20.61-3.81a36.6,36.6,0,0,1-14.55-11.72q-8.3-11-8.3-27.15,0-22,15.73-34.47a40.75,40.75,0,0,1,26.07-9.08A37.07,37.07,0,0,1,664,87.84a30.06,30.06,0,0,1,11.23,8.06q7.14,8.2,7.13,20.51Zm42.57-3.81q-.68-9.76-3.59-15a20.52,20.52,0,0,0-7-7.57,17.06,17.06,0,0,0-9.33-2.78q-8.37,0-14.63,7.22t-7.44,18.17Z"/><path class="cls-1" d="M701.35,169.53V141.89h1.56q2.73,10.17,6.82,16.22,7.5,11,17.53,11a16.12,16.12,0,0,0,10.62-3.71q4.88-4.1,4.87-11.62a17.23,17.23,0,0,0-3.5-10.74,22.86,22.86,0,0,0-4.92-4.5,113.06,113.06,0,0,0-10-5.76q-12.27-6.54-16.37-10.93a20.57,20.57,0,0,1-5.84-14.46A21.52,21.52,0,0,1,708,92.29q6.74-7.23,17.87-7.23a24.15,24.15,0,0,1,9.28,1.76l3.32,1.46a8,8,0,0,0,2.73.59q1.86,0,3.52-2.93h1.95l1.07,22.17h-2.05a43.71,43.71,0,0,0-2.29-7.52,21.73,21.73,0,0,0-3.45-5.47,22.4,22.4,0,0,0-7-5.81,16.84,16.84,0,0,0-7.89-2.1,12.5,12.5,0,0,0-9.3,4,13.44,13.44,0,0,0-3.85,9.72,12.64,12.64,0,0,0,3.46,8.64q3.46,3.86,10.67,7.08l10.33,4.69q9.25,4.2,13.84,10.45a24.29,24.29,0,0,1,4.58,14.74,23.24,23.24,0,0,1-6.65,17q-7.61,7.82-19.53,7.81a36.5,36.5,0,0,1-13.08-2.54c-2.87-1.11-4.59-1.74-5.18-1.9a8.19,8.19,0,0,0-2.24-.25,5.68,5.68,0,0,0-5.18,2.93Z"/><path class="cls-1" d="M135.52,122.18a4.59,4.59,0,0,0,.06.73,1.85,1.85,0,0,0,0,.23,5.41,5.41,0,0,0,.12.55,2.5,2.5,0,0,0,.07.26c.06.2.13.41.21.62s0,.12.07.18c.11.27.23.55.37.82l.12.22c.11.2.23.42.36.63l.18.28c.12.21.26.41.4.61l.19.26c.2.29.42.57.65.85l.1.11c.21.25.42.5.65.75l.28.29c.18.19.36.38.56.57l.31.3.69.63.23.21c.31.27.63.53,1,.79.1.09.22.17.32.25s.49.37.74.54l.41.29.27.19,0,0a31.22,31.22,0,0,0,4.95,2.72l1.63,16.26h0c-7.37,1.5-12.42,4.57-12.42,8.13,0,5,10.13,9.1,22.63,9.1s22.63-4.08,22.63-9.1c0-3.56-5.06-6.63-12.44-8.13L172.51,136c7.92-3.45,13.3-9.69,13.3-13.86a5.41,5.41,0,0,0-.88-2.87h0s0,0,0,0a8.7,8.7,0,0,0-1.32-1.59l-.1-.1c-.26-.24-.54-.48-.84-.71l-.11-.08c-.31-.24-.63-.47-1-.7h0c-.34-.22-.71-.43-1.09-.64l-.18-.11c-.38-.2-.76-.39-1.17-.58l-.19-.09c-.41-.19-.83-.37-1.27-.55l-.05,0c-.45-.17-.91-.34-1.38-.5l-.27-.1c-.46-.15-.94-.3-1.43-.44l-.27-.07c-.5-.14-1-.28-1.52-.4h-.06c-.53-.13-1.07-.24-1.63-.35l-.32-.07-1.65-.28-.32,0L167,111.6h0c-.6-.07-1.21-.12-1.83-.17l-.35,0-1-.06-1.77-52.19h0l-1.38-40.78-3.16,93C145.12,112,135.52,116.61,135.52,122.18Z"/></svg>