<svg id="Layer_1" data-name="Layer 1" xmlns="http://www.w3.org/2000/svg" width="1100" height="275" viewBox="0 0 1100 275"><defs><style>.cls-1{fill:#8bbff0;}.cls-2{fill:#e8caa2;}.cls-3{fill:#76d68b;}.cls-4{fill:#f2e6c2;}.cls-5{fill:#f2b230;}.cls-6{fill:#454545;}.cls-7{fill:#4d4d4d;}.cls-8{fill:#d63636;}.cls-9{fill:#bd2f2f;}.cls-10{fill:#fff;}</style></defs><circle class="cls-1" cx="134.23" cy="144.76" r="128.22"/><path class="cls-2" d="M79.27,119c-2.75-9-.79-14.22,1.18-19.06S79.27,84.3,76.91,78c-1.7-4.54-23.86-15.41-36.06-21.12A128.23,128.23,0,0,0,66.5,253.65c2.38-6.25,5.88-17.56,8-34.21,3.54-27.11,11-22.39,23.18-35.75s14.93-31,8.25-42.82S82,127.91,79.27,119Z"/><path class="cls-3" d="M134.23,273a127.75,127.75,0,0,0,84.3-31.61c-5.51-3.85-21.33-5.24-25.73-9-5.11-4.32-18.07-3.93-20,.4s-20-.79-28.67-3.15S137,212.37,139,209.23s7.07-13.75-2.75-22.4S128,180.94,104.8,190s-29.33,23.59-31.67,38.7a110.69,110.69,0,0,1-7.29,24.56A127.64,127.64,0,0,0,134.23,273Z"/><path class="cls-2" d="M234.18,89.67c-2.62-.52-19.91,23.57-18.34,33,1.41,8.43-8.91,26.48-16.35,28.5h0s19,2.4,23.16,8.69,17,14.66,23.57,13.1c3.9-.94,9.2-.25,13.07.19A128.57,128.57,0,0,0,237,68.06C236.91,78.77,235.62,90,234.18,89.67Z"/><path class="cls-3" d="M234.18,89.67c1.44.29,2.73-10.9,2.8-21.61a128.11,128.11,0,0,0-87.33-50.59C147.9,26.28,140,35.65,137.8,37.82c-2.62,2.62-19.38,16.24-13.62,31.43s28.81-3.67,34.57,0,6.81,8.9,5.24,12.57-5.24,14.61-4.19,19.35-3.14,16.68-7.33,17.78-24.64,33.05-8.65,40.91,21.22,30.9,28,14.14,17.81-25.23,25.15-22.83a4.26,4.26,0,0,0,2.5,0c7.44-2,17.76-20.07,16.35-28.5C214.27,113.24,231.56,89.15,234.18,89.67Z"/><path class="cls-4" d="M235.63,96.16l-51-32h0l-.07,0-.07,0-.06,0-.09,0h-.05l-.1,0h-.06l-.08,0h-.59l-.08,0-.06,0-.07,0-.07,0-.06,0-.07,0-.06,0-.07.05,0,0-.06,0-.06,0,0,.05-.06.07,0,0-.06.08s0,0,0,0v0a.59.59,0,0,0,0,.08l0,.06,0,.06,0,.09v0l-26.7,80.43-104.36-17h-.57l-.08,0-.07,0-.07,0s-.05,0-.07,0l-.07,0-.07,0-.07,0,0,0h0l-.06,0-.06.05-.05,0-.06.06,0,.05-.06.07,0,0a.18.18,0,0,0,0,.07l0,.06,0,.06,0,.07,0,.07s0,.05,0,.07a.24.24,0,0,0,0,.08.14.14,0,0,0,0,.06s0,.06,0,.09v0a.06.06,0,0,0,0,0s0,.06,0,.09V130s0,.05,0,.08,0,.05,0,.07,0,.05,0,.07a.24.24,0,0,1,0,.08.19.19,0,0,1,0,.07l0,.07,0,.07,0,.07,0,.06.05.08,0,0,59.51,87.78a.61.61,0,0,0,.12.16l0,0,.09.09,0,0,.09.07.06,0h0l0,0,.14.08.07,0,.12,0,.08,0,.12,0,.08,0h.4l.08,0,.13,0,.08,0,.12,0,.07,0,.16-.09h0l0,0,.09-.07,0,0,.09-.09,0,0a.91.91,0,0,0,.11-.16L158,147.93l0-.05,0,0h0v0a1.42,1.42,0,0,0,.08-.18v-.05l26.49-79.81,49.32,31a1.54,1.54,0,1,0,1.64-2.61ZM110.56,214.9,54.34,132l99.8,16.25Z"/><circle class="cls-5" cx="156.72" cy="147.09" r="3.85"/><circle class="cls-5" cx="110.58" cy="217.67" r="3.85"/><circle class="cls-5" cx="51.07" cy="129.87" r="3.85"/><circle class="cls-5" cx="234.81" cy="97.46" r="3.85"/><circle class="cls-5" cx="183.83" cy="65.42" r="3.85"/><polygon class="cls-6" points="156.71 147.05 124.51 48.29 117.89 50.7 156.71 147.05"/><polygon class="cls-7" points="121.91 49.24 141.46 109.2 117.89 50.7 121.91 49.24"/><path class="cls-8" d="M127.59,32.42,117.72,12l-18,6.54,5.57,22c-6.26,5.95-9.18,13.66-7.76,17.58,2.07,5.67,14.32,6.42,27.37,1.67s21.95-13.2,19.89-18.87C143.4,37,136.21,33,127.59,32.42Z"/><path class="cls-9" d="M144.83,40.9C146.89,46.57,138,55,124.94,59.77c-10.91,4-21.26,4.1-25.57.72,5.18.74,12.33-.18,19.73-2.88,13.05-4.75,22-13.2,19.89-18.87-.7-1.94-2.83-3.92-5.85-5.47C139.15,34.76,143.72,37.86,144.83,40.9Z"/><path class="cls-9" d="M101.32,24.69a104.43,104.43,0,0,0,26.27,7.73L120.5,17.7Z"/><ellipse class="cls-8" cx="108.12" cy="13.56" rx="22.63" ry="9.11" transform="translate(1.88 37.8) rotate(-20)"/><path class="cls-10" d="M338.42,203.59v-2.25a30.79,30.79,0,0,0,9.13-1.61,16.59,16.59,0,0,0,6.11-4,15.88,15.88,0,0,0,4.2-7.91q1.06-4.78,1.07-14.85V101q0-10.07-1.07-14.84a15.84,15.84,0,0,0-4.2-7.91,15.59,15.59,0,0,0-6.15-4.11,32.77,32.77,0,0,0-9.09-1.56V70.29h64.16q9.76,0,12.8.19,11.13.88,18.45,5.27A27.21,27.21,0,0,1,443.65,86a29.25,29.25,0,0,1,3.47,14.26q0,12.8-7.92,21a25.75,25.75,0,0,1-6.44,5,72.41,72.41,0,0,1-10.45,4.44,89.77,89.77,0,0,1,14.55,3.42,33.11,33.11,0,0,1,9.38,5.18A34.63,34.63,0,0,1,456,152a38.85,38.85,0,0,1,3.47,16.36,36.91,36.91,0,0,1-3.56,16.26,30.58,30.58,0,0,1-9.92,11.87A35.75,35.75,0,0,1,432.22,202q-8,1.57-22.41,1.57Zm41.9-130.28v58h7.91a88.72,88.72,0,0,0,11.52-.78,49.61,49.61,0,0,0,8.35-1.86,22.33,22.33,0,0,0,5.81-2.93,24.39,24.39,0,0,0,7.67-9.52,30.21,30.21,0,0,0,2.68-12.84,36.27,36.27,0,0,0-2.78-14.11,25.76,25.76,0,0,0-7.37-10.4,22.43,22.43,0,0,0-9.13-4.4q-5.13-1.17-15.58-1.17Zm0,61v40.23a55.34,55.34,0,0,0,1,11.82,20.14,20.14,0,0,0,3.37,7.62q5,6.54,17.09,6.54,15.72,0,24.86-8.6t9.13-23.43A43,43,0,0,0,433,152.76a26.4,26.4,0,0,0-7.61-11.19q-8.79-7.22-27.54-7.22Z"/><path class="cls-10" d="M545.26,211.89l-1.76.49a11.53,11.53,0,0,0-3.32-3.81,7.36,7.36,0,0,0-4.1-1.08,8.28,8.28,0,0,0-6.69,3.13,12.24,12.24,0,0,0-2.59,8.1q0,7.92,7.91,13t20.22,5.08q13.08,0,21.14-5.62t8.06-14.6q0-7.22-5.37-11.08t-15.34-3.86H547.9q-9.57,0-15.43-4.5-6.06-4.71-6.06-11.27,0-7,6.45-11,3.32-2,12.11-4.21a33,33,0,0,1-13.19-10.29,23.27,23.27,0,0,1-4.68-14.08,24.78,24.78,0,0,1,7.32-17.55,30.33,30.33,0,0,1,10.17-7.11,30,30,0,0,1,12-2.54q9.38,0,19.15,6.64a36.46,36.46,0,0,1,8.27-5.12,20.74,20.74,0,0,1,8-1.52,13.29,13.29,0,0,1,7.73,2,7.52,7.52,0,0,1,3.53,6.25,5.35,5.35,0,0,1-1.38,3.76,4.48,4.48,0,0,1-3.45,1.52q-3.15,0-5.72-3.32l-2.24-2.93a6.32,6.32,0,0,0-5.26-2.35q-3.6,0-7.6,3.62,8,9.66,8,19.92,0,12.8-11.36,20.21a33.68,33.68,0,0,1-12.24,5q-1.95.3-12.43,1-14.35.88-14.36,8,0,6.25,12.23,6.25h16.14a58.36,58.36,0,0,1,14.37,1.51,29.66,29.66,0,0,1,10.27,4.74q8.61,6.34,8.61,17.87,0,12.69-10,19.82-10.27,7.33-30.12,7.33-21.32,0-30.21-8.6a18.63,18.63,0,0,1-5.67-13.86A15.77,15.77,0,0,1,525,205.78a13.47,13.47,0,0,1,10.26-4.54,10,10,0,0,1,7.18,2.64,9.13,9.13,0,0,1,2.78,6.93Zm-4.2-64.9q0,10.53,4.43,17.16t11.34,6.62q7,0,10.9-6.57t3.9-18.28q0-12.09-5.06-19.3-3.71-5.36-9.54-5.36-7,0-11.3,7a30.54,30.54,0,0,0-3.4,8.58A41.29,41.29,0,0,0,541.06,147Z"/><path class="cls-10" d="M775.44,69.6l1.17,43.65h-2.25c-.72-1.88-1.27-3.32-1.66-4.29q-3.42-9.37-5.57-14a49,49,0,0,0-11-15,36.29,36.29,0,0,0-11.33-7.52,35.25,35.25,0,0,0-13.18-2.34,37,37,0,0,0-19.14,4.79,47.83,47.83,0,0,0-13.28,12.06,69.49,69.49,0,0,0-10.06,17.92q-5.57,14.16-5.57,32.22a93.28,93.28,0,0,0,3.81,27.64,55.45,55.45,0,0,0,11.13,20.6q13.49,15.44,35.74,15.43a49.78,49.78,0,0,0,20-3.85A31.49,31.49,0,0,0,768,186q5.67-8.12,8.21-21.88l2.24.39Q776.62,180,770.06,189a39.29,39.29,0,0,1-17.23,13.28q-11,4.59-25.44,4.59a82.73,82.73,0,0,1-25.78-4,56.66,56.66,0,0,1-30.67-23.29q-11-16.85-11-40.18a83.13,83.13,0,0,1,6.44-33,61,61,0,0,1,18-24.27A69.75,69.75,0,0,1,705.56,71a73.82,73.82,0,0,1,49.76.34l8,2.64a12.07,12.07,0,0,0,4.1.88,4.83,4.83,0,0,0,4-2.06,19.27,19.27,0,0,0,1.66-3.22Z"/><path class="cls-10" d="M788.13,122.63l28.13-3.52v56.25l.09,7.39a43.18,43.18,0,0,0,.78,9.69,10.22,10.22,0,0,0,3,5.11q2.73,2.63,10.06,4v2.05H787.06v-2.05q5.85-.78,8.39-2.19a10,10,0,0,0,4.11-4.81,21.16,21.16,0,0,0,1.51-6.75q.43-4.51.44-13.07v-24a134.19,134.19,0,0,0-.49-14,15.07,15.07,0,0,0-2.15-6.56,10.29,10.29,0,0,0-4-3.93,17.64,17.64,0,0,0-6.74-1.51Zm20.36-38.58a8.69,8.69,0,0,1-6.33-2.44,8.67,8.67,0,0,1,.05-12.25,9.18,9.18,0,0,1,12.57,0,8.69,8.69,0,0,1,.05,12.25A8.71,8.71,0,0,1,808.49,84.05Z"/><path class="cls-10" d="M860.79,120.58h24.8v3.71h-24.8v56.84q0,10.25,3.5,14.64a12.43,12.43,0,0,0,4.87,3.81,15.61,15.61,0,0,0,6.52,1.37,13.6,13.6,0,0,0,7.3-1.81,25.17,25.17,0,0,0,6.43-6.59l1.46,1.27a20.29,20.29,0,0,1-9,8.69q-5.8,2.84-14.5,2.83-11.52,0-16.8-4.49a10.83,10.83,0,0,1-3.71-5.61q-.87-3.27-.88-11.77V124.29H835.49v-1.56a27.52,27.52,0,0,0,11.73-7.91,39.18,39.18,0,0,0,5.21-7.18,50.83,50.83,0,0,0,3.74-9.23l1-3.22h3.64Z"/><path class="cls-10" d="M888.42,122.63l28.13-3.52v56.25l.1,7.39a43.18,43.18,0,0,0,.78,9.69,10.21,10.21,0,0,0,3,5.11q2.74,2.63,10.06,4v2.05H887.35v-2.05c3.91-.52,6.7-1.25,8.4-2.19a10,10,0,0,0,4.1-4.81,20.89,20.89,0,0,0,1.51-6.75q.45-4.51.44-13.07v-24a134.19,134.19,0,0,0-.49-14,15.2,15.2,0,0,0-2.14-6.56,10.38,10.38,0,0,0-4-3.93,17.64,17.64,0,0,0-6.74-1.51Zm20.37-38.58a8.7,8.7,0,0,1-6.34-2.44,8.69,8.69,0,0,1,0-12.25,9.18,9.18,0,0,1,12.57,0,8.69,8.69,0,0,1,0,12.25A8.69,8.69,0,0,1,908.79,84.05Z"/><path class="cls-10" d="M956.49,150.46q-.39,4.78-.39,6.93A56.6,56.6,0,0,0,958.58,174a40.32,40.32,0,0,0,6.76,13.47,31.55,31.55,0,0,0,24.43,11.72,28.18,28.18,0,0,0,10-1.76,21.22,21.22,0,0,0,7.83-4.88q3.51-3.42,6-10.94l2,.69q-2.53,11.41-10.89,17.23t-22.22,5.81q-12,0-20.6-3.8a36.62,36.62,0,0,1-14.55-11.72q-8.31-11-8.3-27.15,0-22,15.72-34.47a40.74,40.74,0,0,1,26.07-9.09,37,37,0,0,1,14.46,2.79,30.12,30.12,0,0,1,11.23,8q7.13,8.2,7.13,20.51Zm42.58-3.81q-.69-9.77-3.6-15a20.33,20.33,0,0,0-7-7.56,17,17,0,0,0-9.33-2.79q-8.35,0-14.63,7.23t-7.44,18.16Z"/><path class="cls-10" d="M1032.66,203.59V176h1.56q2.73,10.16,6.82,16.21,7.5,11,17.54,11a16.11,16.11,0,0,0,10.62-3.72q4.88-4.09,4.87-11.62a17.18,17.18,0,0,0-3.51-10.74,22.83,22.83,0,0,0-4.92-4.49,109,109,0,0,0-10-5.76q-12.29-6.54-16.37-10.94a20.51,20.51,0,0,1-5.85-14.45,21.58,21.58,0,0,1,5.86-15.14q6.73-7.23,17.87-7.23a24.3,24.3,0,0,1,9.28,1.76l3.32,1.47a7.93,7.93,0,0,0,2.74.58c1.23,0,2.4-1,3.51-2.93h2l1.08,22.17h-2a45.88,45.88,0,0,0-2.29-7.52,21.5,21.5,0,0,0-3.46-5.47,22.54,22.54,0,0,0-7-5.81,16.84,16.84,0,0,0-7.89-2.1,12.51,12.51,0,0,0-9.3,4,13.39,13.39,0,0,0-3.84,9.71,12.64,12.64,0,0,0,3.46,8.65q3.45,3.85,10.67,7.08l10.32,4.68q9.25,4.2,13.84,10.45a24.32,24.32,0,0,1,4.58,14.75q0,10.26-6.64,17-7.62,7.82-19.53,7.81a36.33,36.33,0,0,1-13.09-2.54c-2.86-1.1-4.59-1.74-5.17-1.9a8.79,8.79,0,0,0-2.25-.24,5.67,5.67,0,0,0-5.18,2.93Z"/><path class="cls-10" d="M466.84,156.23a6,6,0,0,0,.05.73c0,.08,0,.16,0,.24s.07.36.12.55l.07.25c.06.21.14.42.22.63l.06.18c.11.27.24.54.38.82,0,.07.08.14.11.21s.23.42.36.63l.18.29c.13.2.26.4.41.6l.18.27c.21.28.42.56.66.85l.09.11c.21.25.43.49.65.74l.28.29.56.57.31.31.69.63.23.2c.31.27.64.53,1,.8l.33.25.73.54.41.28.28.2,0,0a30.37,30.37,0,0,0,4.94,2.73l1.63,16.25h0c-7.37,1.5-12.43,4.58-12.43,8.13,0,5,10.13,9.11,22.63,9.11s22.63-4.08,22.63-9.11c0-3.55-5.06-6.63-12.44-8.13l1.65-16.25c7.92-3.45,13.3-9.69,13.3-13.87a5.36,5.36,0,0,0-.88-2.86h0l0,0a8.7,8.7,0,0,0-1.32-1.59l-.1-.09a9.91,9.91,0,0,0-.84-.72l-.1-.08c-.31-.24-.64-.47-1-.7h0c-.35-.22-.71-.44-1.09-.65l-.19-.1c-.37-.2-.76-.4-1.16-.59l-.2-.09c-.41-.19-.83-.37-1.27-.54l0,0q-.66-.27-1.38-.51l-.27-.09c-.46-.16-.94-.3-1.42-.44l-.28-.08c-.49-.14-1-.27-1.51-.39l-.07,0c-.53-.13-1.07-.24-1.62-.35l-.33-.06c-.54-.11-1.09-.2-1.65-.29l-.32,0c-.57-.09-1.15-.17-1.74-.23h-.05c-.6-.07-1.21-.12-1.83-.17l-.35,0-1,0-1.77-52.2h0L492,52.42l-3.15,93C476.43,146.07,466.84,150.66,466.84,156.23Z"/></svg>